<svg width="16" height="16" viewBox="0 0 16 16" fill="none" xmlns="http://www.w3.org/2000/svg">
<g clip-path="url(#clip0_1944_383)">
<rect width="16" height="16" rx="8" fill="#E5E5E5" style="fill:#E5E5E5;fill:color(display-p3 0.8980 0.8980 0.8980);fill-opacity:1;"/>
<path d="M3.21213 16H12.7956C13.2082 16 13.5318 15.9143 13.7661 15.7429C14.0005 15.5715 14.1177 15.331 14.1177 15.0215C14.1177 14.5882 13.975 14.1334 13.6897 13.6572C13.4095 13.1763 13.0019 12.7287 12.4669 12.3144C11.932 11.8954 11.2875 11.5549 10.5334 11.293C9.78449 11.0311 8.9413 10.9002 8.00384 10.9002C7.06639 10.9002 6.22064 11.0311 5.4666 11.293C4.71257 11.5549 4.06807 11.8954 3.53311 12.3144C3.00324 12.7287 2.59565 13.1763 2.31034 13.6572C2.02503 14.1334 1.88237 14.5882 1.88237 15.0215C1.88237 15.331 1.99956 15.5715 2.23392 15.7429C2.46828 15.9143 2.79435 16 3.21213 16ZM8.00384 9.70737C8.53371 9.70737 9.02027 9.57404 9.46352 9.30738C9.90677 9.04072 10.2609 8.68121 10.5258 8.22885C10.7958 7.77172 10.9308 7.25983 10.9308 6.69318C10.9308 6.14082 10.7958 5.64322 10.5258 5.20038C10.2609 4.75754 9.90677 4.40755 9.46352 4.15041C9.02027 3.89328 8.53371 3.76471 8.00384 3.76471C7.47907 3.76471 6.99251 3.89566 6.54417 4.15756C6.10091 4.41945 5.74427 4.7742 5.47425 5.22181C5.20931 5.66465 5.0794 6.15987 5.08449 6.70747C5.08449 7.26459 5.21696 7.77172 5.48189 8.22885C5.74682 8.68121 6.10091 9.04072 6.54417 9.30738C6.98742 9.57404 7.47398 9.70737 8.00384 9.70737Z" fill="#B9B9B9" style="fill:#B9B9B9;fill:color(display-p3 0.7255 0.7255 0.7255);fill-opacity:1;"/>
</g>
<rect x="0.5" y="0.5" width="15" height="15" rx="7.5" stroke="#B9B9B9" style="stroke:#B9B9B9;stroke:color(display-p3 0.7255 0.7255 0.7255);stroke-opacity:1;"/>
<path d="M10.65 12.958C10.65 14.2712 11.7288 15.35 13.042 15.35C14.3552 15.35 15.434 14.2712 15.434 12.958C15.434 11.6466 14.353 10.566 13.04 10.566C11.7284 10.566 10.65 11.6472 10.65 12.958Z" fill="#B9B9B9" stroke="#E5E5E5" style="fill:#B9B9B9;fill:color(display-p3 0.7255 0.7255 0.7255);fill-opacity:1;stroke:#E5E5E5;stroke:color(display-p3 0.8980 0.8980 0.8980);stroke-opacity:1;" stroke-width="0.7"/>
<path d="M12.0827 12.96C12.0827 13.0794 12.1708 13.1655 12.2922 13.1655H12.8345V13.7098C12.8345 13.8292 12.9206 13.9154 13.04 13.9154C13.1634 13.9154 13.2515 13.8292 13.2515 13.7098V13.1655H13.7938C13.9132 13.1655 14.0013 13.0794 14.0013 12.96C14.0013 12.8366 13.9132 12.7485 13.7938 12.7485H13.2515V12.2062C13.2515 12.0868 13.1634 11.9987 13.04 11.9987C12.9206 11.9987 12.8345 12.0868 12.8345 12.2062V12.7485H12.2922C12.1708 12.7485 12.0827 12.8366 12.0827 12.96Z" fill="#E5E5E5" style="fill:#E5E5E5;fill:color(display-p3 0.8980 0.8980 0.8980);fill-opacity:1;"/>
<defs>
<clipPath id="clip0_1944_383">
<rect width="16" height="16" rx="8" fill="white" style="fill:white;fill-opacity:1;"/>
</clipPath>
</defs>
</svg>
