<svg xmlns="http://www.w3.org/2000/svg" width="16" height="16" viewBox="0 0 16 16" fill="none">
  <path d="M11.7122 8.37153C11.7122 8.60286 11.6332 8.7947 11.447 8.97526L7.10243 13.224C6.95573 13.3707 6.78082 13.444 6.57205 13.444C6.14887 13.444 5.80469 13.1055 5.80469 12.6823C5.80469 12.4679 5.89497 12.2817 6.04731 12.1293L9.90668 8.36589L6.04731 4.61372C5.89497 4.46137 5.80469 4.26953 5.80469 4.06076C5.80469 3.63759 6.14887 3.30469 6.57205 3.30469C6.78082 3.30469 6.95573 3.3724 7.10243 3.5191L11.447 7.7678C11.6276 7.94835 11.7122 8.14019 11.7122 8.37153Z" fill="#0F1FEA" style="fill:#0F1FEA;fill:color(display-p3 0.0588 0.1216 0.9176);fill-opacity:1;"/>
</svg>