<svg xmlns="http://www.w3.org/2000/svg" width="25" height="24" viewBox="0 0 25 24" fill="none">
  <path d="M6.92188 12.5553C6.93034 12.2083 7.04883 11.9206 7.32813 11.6497L13.8451 5.27669C14.0566 5.05664 14.319 4.95508 14.6406 4.95508C15.2754 4.95508 15.7832 5.45443 15.7832 6.08919C15.7832 6.40234 15.6563 6.6901 15.4277 6.91862L9.63867 12.5469L15.4277 18.1921C15.6563 18.4206 15.7832 18.6999 15.7832 19.0215C15.7832 19.6563 15.2754 20.1641 14.6406 20.1641C14.3275 20.1641 14.0566 20.054 13.8451 19.834L7.32813 13.4609C7.04883 13.1901 6.92188 12.9023 6.92188 12.5553Z" fill="#171717" style="fill:#171717;fill:color(display-p3 0.0902 0.0902 0.0902);fill-opacity:1;"/>
</svg>