<svg xmlns="http://www.w3.org/2000/svg" width="14" height="14" viewBox="0 0 14 14" fill="none">
  <path d="M7 11.0615C6.76758 11.0615 6.5625 10.9727 6.38477 10.7881L1.17578 5.46289C1.02539 5.3125 0.943359 5.12109 0.943359 4.90234C0.943359 4.45801 1.29199 4.10938 1.73633 4.10938C1.95508 4.10938 2.15332 4.19824 2.31055 4.34863L7 9.1543L11.6895 4.34863C11.8398 4.19824 12.0449 4.10937 12.2637 4.10937C12.7012 4.10937 13.0498 4.45801 13.0498 4.90234C13.0498 5.12793 12.9746 5.3125 12.8242 5.46289L7.61523 10.7881C7.44434 10.9727 7.23242 11.0615 7 11.0615Z" fill="#171717" style="fill:#171717;fill:color(display-p3 0.0902 0.0902 0.0902);fill-opacity:1;"/>
</svg>