<svg xmlns="http://www.w3.org/2000/svg" width="24" height="24" viewBox="0 0 24 24" fill="none">
  <path d="M4.85286 17.0469C3.9388 17.0469 3.36328 16.5221 3.36328 15.752C3.36328 14.8294 4.15039 14.0592 4.92904 13.3398C5.54687 12.7728 5.68229 11.5456 5.81771 10.3437C5.97852 7.33073 6.92643 5.16406 9.07617 4.38542C9.44857 3.26823 10.3965 2.42188 11.6491 2.42188C12.9017 2.42188 13.8496 3.26823 14.222 4.38542C16.3717 5.16406 17.3197 7.33073 17.4805 10.3437C17.6159 11.5456 17.7513 12.7728 18.3691 13.3398C19.1393 14.0592 19.9349 14.8294 19.9349 15.752C19.9349 16.5221 19.3594 17.0469 18.4453 17.0469H4.85286ZM11.6491 20.5931C10.1087 20.5931 8.98307 19.5098 8.88151 18.2487H14.4167C14.3066 19.5098 13.1895 20.5931 11.6491 20.5931Z" fill="#171717" style="fill:#171717;fill:color(display-p3 0.0902 0.0902 0.0902);fill-opacity:1;"/>
</svg>