<svg xmlns="http://www.w3.org/2000/svg" width="16" height="16" viewBox="0 0 16 16" fill="none">
  <path d="M3.7487 13.7852L12.2513 13.7852C12.9284 13.7852 13.4405 13.6115 13.7878 13.2643C14.135 12.9214 14.3086 12.4158 14.3086 11.7474L14.3086 4.26693C14.3086 3.59852 14.135 3.09071 13.7878 2.74349C13.4405 2.39627 12.9284 2.22266 12.2513 2.22266L3.7487 2.22266C3.07595 2.22266 2.5638 2.39627 2.21224 2.74349C1.86502 3.08637 1.69141 3.59418 1.69141 4.26693L1.69141 11.7474C1.69141 12.4201 1.86502 12.9279 2.21224 13.2708C2.5638 13.6137 3.07595 13.7852 3.7487 13.7852ZM3.76823 12.4896C3.51649 12.4896 3.32552 12.4245 3.19531 12.2943C3.0651 12.1641 3 11.9666 3 11.7018L3 6.07031C3 5.80555 3.0651 5.61024 3.19531 5.48437C3.32552 5.35417 3.51649 5.28906 3.76823 5.28906L12.2253 5.28906C12.477 5.28906 12.6701 5.35417 12.8047 5.48437C12.9392 5.61024 13.0065 5.80555 13.0065 6.07031L13.0065 11.7018C13.0065 11.9666 12.9392 12.1641 12.8047 12.2943C12.6701 12.4245 12.477 12.4896 12.2253 12.4896L3.76823 12.4896ZM6.82161 7.38542H7.17969C7.29253 7.38542 7.37066 7.36588 7.41406 7.32682C7.45747 7.28776 7.47917 7.2118 7.47917 7.09896V6.74088C7.47917 6.62804 7.45747 6.55208 7.41406 6.51302C7.37066 6.47396 7.29253 6.45443 7.17969 6.45443H6.82161C6.71311 6.45443 6.63498 6.47396 6.58724 6.51302C6.54384 6.55208 6.52214 6.62804 6.52214 6.74088V7.09896C6.52214 7.2118 6.54384 7.28776 6.58724 7.32682C6.63498 7.36588 6.71311 7.38542 6.82161 7.38542ZM8.82031 7.38542H9.1849C9.29774 7.38542 9.37587 7.36588 9.41927 7.32682C9.46267 7.28776 9.48438 7.2118 9.48438 7.09896V6.74088C9.48438 6.62804 9.46267 6.55208 9.41927 6.51302C9.37587 6.47396 9.29774 6.45443 9.1849 6.45443H8.82031C8.70747 6.45443 8.62934 6.47396 8.58594 6.51302C8.54688 6.55208 8.52734 6.62804 8.52734 6.74088V7.09896C8.52734 7.2118 8.54688 7.28776 8.58594 7.32682C8.62934 7.36588 8.70747 7.38542 8.82031 7.38542ZM10.819 7.38542H11.1836C11.2964 7.38542 11.3746 7.36588 11.418 7.32682C11.4614 7.28776 11.4831 7.2118 11.4831 7.09896V6.74088C11.4831 6.62804 11.4614 6.55208 11.418 6.51302C11.3746 6.47396 11.2964 6.45443 11.1836 6.45443H10.819C10.7062 6.45443 10.628 6.47396 10.5846 6.51302C10.5456 6.55208 10.526 6.62804 10.526 6.74088V7.09896C10.526 7.2118 10.5456 7.28776 10.5846 7.32682C10.628 7.36588 10.7062 7.38542 10.819 7.38542ZM4.82292 9.35807H5.18099C5.29384 9.35807 5.37196 9.33854 5.41536 9.29948C5.45877 9.25607 5.48047 9.18012 5.48047 9.07161V8.70703C5.48047 8.59418 5.45877 8.51823 5.41536 8.47917C5.37196 8.4401 5.29384 8.42057 5.18099 8.42057H4.82292C4.71007 8.42057 4.63194 8.4401 4.58854 8.47917C4.54514 8.51823 4.52344 8.59418 4.52344 8.70703V9.07161C4.52344 9.18012 4.54514 9.25607 4.58854 9.29948C4.63194 9.33854 4.71007 9.35807 4.82292 9.35807ZM6.82161 9.35807H7.17969C7.29253 9.35807 7.37066 9.33854 7.41406 9.29948C7.45747 9.25607 7.47917 9.18012 7.47917 9.07161V8.70703C7.47917 8.59418 7.45747 8.51823 7.41406 8.47917C7.37066 8.4401 7.29253 8.42057 7.17969 8.42057H6.82161C6.71311 8.42057 6.63498 8.4401 6.58724 8.47917C6.54384 8.51823 6.52214 8.59418 6.52214 8.70703V9.07161C6.52214 9.18012 6.54384 9.25607 6.58724 9.29948C6.63498 9.33854 6.71311 9.35807 6.82161 9.35807ZM8.82031 9.35807H9.1849C9.29774 9.35807 9.37587 9.33854 9.41927 9.29948C9.46267 9.25607 9.48438 9.18012 9.48438 9.07161V8.70703C9.48438 8.59418 9.46267 8.51823 9.41927 8.47917C9.37587 8.4401 9.29774 8.42057 9.1849 8.42057H8.82031C8.70747 8.42057 8.62934 8.4401 8.58594 8.47917C8.54688 8.51823 8.52734 8.59418 8.52734 8.70703V9.07161C8.52734 9.18012 8.54688 9.25607 8.58594 9.29948C8.62934 9.33854 8.70747 9.35807 8.82031 9.35807ZM10.819 9.35807H11.1836C11.2964 9.35807 11.3746 9.33854 11.418 9.29948C11.4614 9.25607 11.4831 9.18012 11.4831 9.07161V8.70703C11.4831 8.59418 11.4614 8.51823 11.418 8.47917C11.3746 8.4401 11.2964 8.42057 11.1836 8.42057H10.819C10.7062 8.42057 10.628 8.4401 10.5846 8.47917C10.5456 8.51823 10.526 8.59418 10.526 8.70703V9.07161C10.526 9.18012 10.5456 9.25607 10.5846 9.29948C10.628 9.33854 10.7062 9.35807 10.819 9.35807ZM4.82292 11.3242H5.18099C5.29384 11.3242 5.37196 11.3047 5.41536 11.2656C5.45877 11.2222 5.48047 11.1463 5.48047 11.0378V10.6797C5.48047 10.5668 5.45877 10.4909 5.41536 10.4518C5.37196 10.4084 5.29384 10.3867 5.18099 10.3867H4.82292C4.71007 10.3867 4.63194 10.4084 4.58854 10.4518C4.54514 10.4909 4.52344 10.5668 4.52344 10.6797V11.0378C4.52344 11.1463 4.54514 11.2222 4.58854 11.2656C4.63194 11.3047 4.71007 11.3242 4.82292 11.3242ZM6.82161 11.3242H7.17969C7.29253 11.3242 7.37066 11.3047 7.41406 11.2656C7.45747 11.2222 7.47917 11.1463 7.47917 11.0378V10.6797C7.47917 10.5668 7.45747 10.4909 7.41406 10.4518C7.37066 10.4084 7.29253 10.3867 7.17969 10.3867H6.82161C6.71311 10.3867 6.63498 10.4084 6.58724 10.4518C6.54384 10.4909 6.52214 10.5668 6.52214 10.6797V11.0378C6.52214 11.1463 6.54384 11.2222 6.58724 11.2656C6.63498 11.3047 6.71311 11.3242 6.82161 11.3242ZM8.82031 11.3242L9.1849 11.3242C9.29774 11.3242 9.37587 11.3047 9.41927 11.2656C9.46267 11.2222 9.48438 11.1463 9.48438 11.0378V10.6797C9.48438 10.5668 9.46267 10.4909 9.41927 10.4518C9.37587 10.4084 9.29774 10.3867 9.1849 10.3867L8.82031 10.3867C8.70747 10.3867 8.62934 10.4084 8.58594 10.4518C8.54688 10.4909 8.52734 10.5668 8.52734 10.6797V11.0378C8.52734 11.1463 8.54688 11.2222 8.58594 11.2656C8.62934 11.3047 8.70747 11.3242 8.82031 11.3242Z" fill="#404040" style="fill:#404040;fill:color(display-p3 0.2510 0.2510 0.2510);fill-opacity:1;"/>
</svg>