<svg xmlns="http://www.w3.org/2000/svg" width="50" height="50" viewBox="0 0 50 50" fill="none">
  <path d="M15.9834 45.2802C13.5481 45.2802 12.0527 43.8702 12.0527 41.3281V40.9436C12.0527 35.5817 17.6283 30.0488 20.2772 27.3999C21.6658 26.0327 21.7299 24.3878 20.2772 22.9352C17.6283 20.2863 12.0527 14.7961 12.0527 9.41284V9.07104C12.0527 6.52893 13.5481 5.09766 15.9834 5.09766H33.9918C36.4271 5.09766 37.9225 6.52893 37.9225 9.07104V9.41284C37.9225 14.7961 32.3469 20.2863 29.698 22.9352C28.2454 24.3878 28.3094 26.0327 29.698 27.3999C32.3469 30.0488 37.9225 35.5817 37.9225 40.9436V41.3281C37.9225 43.8702 36.4271 45.2802 33.9918 45.2802H15.9834ZM26.8354 21.5253C28.2667 20.2649 32.3896 15.9711 33.9705 13.429C34.5045 12.6172 34.2909 11.8481 33.415 11.8481H16.5815C15.6843 11.8481 15.4707 12.6172 16.0048 13.429C17.5856 15.9711 21.7085 20.2649 23.1611 21.5253C24.4642 22.6788 25.511 22.6788 26.8354 21.5253Z" fill="#1D32FF" style="fill:#1D32FF;fill:color(display-p3 0.1137 0.1961 1.0000);fill-opacity:1;"/>
</svg>