<svg xmlns="http://www.w3.org/2000/svg" width="12" height="12" viewBox="0 0 12 12" fill="none">
  <path d="M1.46412 10.804C1.21216 10.5579 1.21802 10.1243 1.46412 9.88404L5.06763 6.27466L1.46412 2.67115C1.21802 2.43091 1.21216 2.00318 1.46412 1.74537C1.71607 1.49341 2.14381 1.49927 2.3899 1.74537L5.99341 5.34888L9.59693 1.74537C9.84888 1.49927 10.2649 1.49927 10.5227 1.75123C10.7805 1.99732 10.7747 2.42506 10.5286 2.67115L6.92506 6.27466L10.5286 9.88404C10.7747 10.1301 10.7747 10.552 10.5227 10.804C10.2708 11.0618 9.84888 11.0559 9.59693 10.8098L5.99341 7.20631L2.3899 10.8098C2.14381 11.0559 1.72193 11.0559 1.46412 10.804Z" fill="#BD1822" style="fill:#BD1822;fill:color(display-p3 0.7412 0.0941 0.1333);fill-opacity:1;"/>
</svg>