<svg xmlns="http://www.w3.org/2000/svg" width="18" height="18" viewBox="0 0 18 18" fill="none">
  <path d="M9.00092 16.9178C4.88763 16.9178 1.55273 13.5829 1.55273 9.46967C1.55273 5.35638 4.88763 2.02148 9.00092 2.02148C13.1142 2.02148 16.4491 5.35638 16.4491 9.46967C16.4491 13.5829 13.1142 16.9178 9.00092 16.9178ZM9.00092 15.2825C12.2144 15.2825 14.8138 12.6832 14.8138 9.46967C14.8138 6.25616 12.2144 3.6568 9.00092 3.6568C5.78741 3.6568 3.18805 6.25616 3.18805 9.46967C3.18805 12.6832 5.78741 15.2825 9.00092 15.2825ZM8.99377 6.26331C8.60101 6.26331 8.27966 5.94196 8.27966 5.54919C8.27966 5.15643 8.60101 4.82794 8.99377 4.82794C9.38654 4.82794 9.71503 5.15643 9.71503 5.54919C9.71503 5.94196 9.38654 6.26331 8.99377 6.26331ZM6.75146 6.95599C6.3587 6.95599 6.03735 6.63464 6.03735 6.24188C6.03735 5.84912 6.3587 5.52777 6.75146 5.52777C7.14423 5.52777 7.46558 5.84912 7.46558 6.24188C7.46558 6.63464 7.14423 6.95599 6.75146 6.95599ZM11.2432 6.95599C10.8505 6.95599 10.522 6.63464 10.522 6.24188C10.522 5.84912 10.8505 5.52777 11.2432 5.52777C11.636 5.52777 11.9573 5.84912 11.9573 6.24188C11.9573 6.63464 11.636 6.95599 11.2432 6.95599ZM5.2804 8.81982C4.88763 8.81982 4.56628 8.49847 4.56628 8.10571C4.56628 7.71295 4.88763 7.3916 5.2804 7.3916C5.67316 7.3916 5.99451 7.71295 5.99451 8.10571C5.99451 8.49847 5.67316 8.81982 5.2804 8.81982ZM12.7143 8.81982C12.3144 8.81982 11.993 8.49847 11.993 8.10571C11.993 7.71295 12.3144 7.3916 12.7143 7.3916C13.1071 7.3916 13.4284 7.71295 13.4284 8.10571C13.4284 8.49847 13.1071 8.81982 12.7143 8.81982ZM8.99377 13.8972C8.32965 13.8972 7.80835 13.3616 7.80835 12.7189C7.80835 12.2761 7.9726 11.9619 8.46533 11.5977L10.9647 9.53394C11.1575 9.38397 11.3646 9.38397 11.5074 9.50537C11.6574 9.61963 11.7003 9.81958 11.5931 10.041L10.2078 12.9617C9.95068 13.5115 9.63647 13.8972 8.99377 13.8972Z" fill="#0F1FEA" style="fill:#0F1FEA;fill:color(display-p3 0.0588 0.1216 0.9176);fill-opacity:1;"/>
</svg>