<svg xmlns="http://www.w3.org/2000/svg" width="24" height="25" viewBox="0 0 24 25" fill="none">
  <path d="M11.9993 20.2747C13.0883 20.2747 14.1124 20.145 15.0716 19.8854C16.0308 19.6259 16.9138 19.2845 17.7207 18.8613C18.5332 18.4325 19.2582 17.9614 19.8958 17.4479C20.5334 16.9345 21.0751 16.4182 21.5208 15.8991C21.9666 15.38 22.3079 14.9004 22.5449 14.4603C22.7819 14.0202 22.9004 13.6647 22.9004 13.3939C22.9004 13.123 22.7819 12.7704 22.5449 12.3359C22.3079 11.8958 21.9666 11.4162 21.5208 10.8971C21.0751 10.378 20.5306 9.86176 19.8874 9.34831C19.2498 8.83485 18.5247 8.36654 17.7122 7.94336C16.9054 7.51454 16.0224 7.17036 15.0632 6.91081C14.1096 6.65126 13.0883 6.52148 11.9993 6.52148C10.9273 6.52148 9.91168 6.65126 8.95247 6.91081C7.99892 7.17036 7.11589 7.51454 6.30339 7.94336C5.49653 8.36654 4.77148 8.83485 4.12826 9.34831C3.49067 9.86176 2.94336 10.378 2.48633 10.8971C2.03494 11.4162 1.68793 11.8958 1.44531 12.3359C1.20833 12.7704 1.08984 13.123 1.08984 13.3939C1.08984 13.6647 1.20833 14.0202 1.44531 14.4603C1.68793 14.9004 2.03494 15.38 2.48633 15.8991C2.94336 16.4182 3.49067 16.9345 4.12826 17.4479C4.77148 17.9614 5.49653 18.4325 6.30339 18.8613C7.11589 19.2845 7.99892 19.6259 8.95247 19.8854C9.91168 20.145 10.9273 20.2747 11.9993 20.2747ZM11.9993 17.7357C11.1925 17.7357 10.459 17.5382 9.79883 17.1432C9.14431 16.7483 8.61957 16.2235 8.22461 15.569C7.83529 14.9089 7.6378 14.1866 7.63216 13.4023C7.63216 12.5898 7.82682 11.8563 8.21615 11.2018C8.61111 10.5473 9.13867 10.0282 9.79883 9.64453C10.459 9.25521 11.1925 9.06055 11.9993 9.06055C12.8006 9.06055 13.5313 9.25521 14.1914 9.64453C14.8572 10.0282 15.3848 10.5501 15.7741 11.2103C16.1691 11.8648 16.3665 12.5955 16.3665 13.4023C16.3665 13.9891 16.2537 14.5449 16.028 15.0697C15.8023 15.5888 15.4891 16.0514 15.0885 16.4577C14.6879 16.8583 14.2224 17.1714 13.6921 17.3971C13.1673 17.6228 12.6031 17.7357 11.9993 17.7357ZM11.9993 15.0443C12.4507 15.0443 12.8372 14.8835 13.1589 14.5618C13.4861 14.2346 13.6497 13.8481 13.6497 13.4023C13.6497 12.951 13.4861 12.5645 13.1589 12.2428C12.8372 11.9212 12.4507 11.7604 11.9993 11.7604C11.548 11.7604 11.1586 11.9212 10.8314 12.2428C10.5098 12.5645 10.349 12.951 10.349 13.4023C10.349 13.8481 10.5098 14.2346 10.8314 14.5618C11.1586 14.8835 11.548 15.0443 11.9993 15.0443Z" fill="#0F1FEA" />
</svg>