<svg xmlns="http://www.w3.org/2000/svg" width="18" height="19" viewBox="0 0 18 19" fill="none">
  <path d="M14.0527 15.6044L3.19189 4.76264C2.99512 4.56587 2.99512 4.22309 3.19189 4.02632C3.39502 3.82319 3.7251 3.82954 3.92822 4.02632L14.7827 14.8745C14.9858 15.0776 14.9922 15.3886 14.7827 15.6044C14.5796 15.8203 14.2559 15.8076 14.0527 15.6044ZM14.6494 13.6049L12.1992 11.1357C12.3579 10.7675 12.4404 10.3549 12.4404 9.92964C12.4404 8.01899 10.898 6.50825 9 6.50825C8.57471 6.50825 8.16846 6.59077 7.79395 6.73677L5.99756 4.94038C6.91162 4.63569 7.9209 4.45796 9 4.45796C14.186 4.45796 17.6519 8.64106 17.6519 9.92964C17.6519 10.6723 16.4966 12.3481 14.6494 13.6049ZM9 15.395C3.87109 15.395 0.341797 11.2119 0.341797 9.92964C0.341797 9.18061 1.53516 7.45405 3.49023 6.17182L5.85791 8.5522C5.66113 8.96479 5.55957 9.43452 5.55957 9.92964C5.55957 11.7895 7.08936 13.351 9 13.351C9.48242 13.351 9.9458 13.2431 10.3584 13.0463L12.1611 14.8554C11.2153 15.1918 10.1489 15.395 9 15.395ZM11.0439 9.79634C11.0439 9.85981 11.0376 9.91694 11.0313 9.97407L8.854 7.79682C8.91113 7.79048 8.96826 7.79048 9.03174 7.79048C10.1489 7.79048 11.0439 8.6855 11.0439 9.79634ZM6.94336 9.84712C6.94336 9.77729 6.94971 9.71382 6.95606 9.64399L9.15234 11.8466C9.08887 11.853 9.02539 11.853 8.96192 11.853C7.85742 11.853 6.94336 10.9516 6.94336 9.84712Z" fill="#A3A3A3"/>
</svg>