<svg xmlns="http://www.w3.org/2000/svg" width="16" height="16" viewBox="0 0 16 16" fill="none">
  <path d="M12.2485 12.8701L3.14453 3.77686C2.9834 3.61572 2.9834 3.33643 3.14453 3.17529C3.31641 3.00342 3.59033 3.00879 3.75684 3.17529L12.8501 12.2632C13.0166 12.4297 13.0273 12.6875 12.8501 12.8701C12.6782 13.0474 12.415 13.0366 12.2485 12.8701ZM8 3.51904C12.3506 3.51904 15.3047 7.03174 15.3047 8.12207C15.3047 8.73438 14.3594 10.1255 12.7588 11.2104L10.7285 9.18555C10.8682 8.86328 10.9487 8.49805 10.9487 8.12207C10.9487 6.49463 9.62744 5.17334 8 5.17334C7.62402 5.17334 7.25879 5.25391 6.93115 5.39356L5.48096 3.93799C6.24902 3.68018 7.09766 3.51904 8 3.51904ZM8 12.7197C3.70312 12.7197 0.695312 9.20703 0.695312 8.12207C0.695312 7.48828 1.71045 6.04346 3.39697 4.94238L5.33594 6.87598C5.15332 7.25732 5.05127 7.67627 5.05127 8.12207C5.05127 9.74951 6.37256 11.0708 8 11.0708C8.4458 11.0708 8.87012 10.9688 9.24609 10.7808L10.7178 12.2471C9.896 12.5371 8.98291 12.7197 8 12.7197ZM9.76709 8.22412L7.89795 6.35498C8.97754 6.2583 9.85303 7.24121 9.76709 8.22412ZM8 9.8999C7.01709 9.8999 6.22217 9.10498 6.22217 8.12207C6.22217 8.00928 6.23828 7.90186 6.25977 7.79443L8.32764 9.86231C8.22021 9.88379 8.11279 9.8999 8 9.8999Z" fill="black" style="fill:black;fill-opacity:1;"/>
</svg>