<svg xmlns="http://www.w3.org/2000/svg" width="16" height="16" viewBox="0 0 16 16" fill="none">
  <path d="M7.99902 15.127C4.10254 15.127 0.9375 11.9619 0.9375 8.06543C0.9375 4.16895 4.10254 1.00391 7.99902 1.00391C11.8955 1.00391 15.0605 4.16895 15.0605 8.06543C15.0605 11.9619 11.8955 15.127 7.99902 15.127ZM7.99902 4.46289C8.61426 4.46289 9.20215 4.62012 9.70801 4.89355L11.2119 3.38965C10.3027 2.76074 9.19531 2.3916 7.99902 2.3916C6.80957 2.3916 5.70898 2.75391 4.7998 3.37598L6.31055 4.88672C6.80957 4.61328 7.39062 4.46289 7.99902 4.46289ZM2.3252 8.06543C2.3252 9.26172 2.69434 10.3691 3.32324 11.2783L4.83398 9.77441C4.55371 9.26855 4.39648 8.68066 4.39648 8.06543C4.39648 7.46387 4.54688 6.88965 4.81348 6.39062L3.30273 4.88672C2.6875 5.78906 2.3252 6.88281 2.3252 8.06543ZM11.6016 8.06543C11.6016 8.68066 11.4512 9.25488 11.1777 9.76074L12.6816 11.2646C13.3037 10.3555 13.6729 9.25488 13.6729 8.06543C13.6729 6.88965 13.3174 5.80273 12.709 4.90039L11.1982 6.4043C11.458 6.90332 11.6016 7.46387 11.6016 8.06543ZM7.99902 10.4307C9.31152 10.4307 10.3711 9.37793 10.3711 8.06543C10.3711 6.75293 9.31152 5.69336 7.99902 5.69336C6.68652 5.69336 5.63379 6.75293 5.63379 8.06543C5.63379 9.37793 6.68652 10.4307 7.99902 10.4307ZM7.99902 13.7324C9.1748 13.7324 10.2686 13.377 11.1777 12.7617L9.66699 11.2578C9.16797 11.5176 8.60059 11.668 7.99902 11.668C7.4043 11.668 6.84375 11.5176 6.34473 11.2646L4.83398 12.7754C5.73633 13.3838 6.83008 13.7324 7.99902 13.7324Z" fill="#0F1FEA" style="fill:#0F1FEA;fill:color(display-p3 0.0588 0.1216 0.9176);fill-opacity:1;"/>
</svg>