<svg xmlns="http://www.w3.org/2000/svg" width="16" height="16" viewBox="0 0 16 16" fill="none">
  <path d="M7.99902 15.127C4.10254 15.127 0.9375 11.9619 0.9375 8.06543C0.9375 4.16895 4.10254 1.00391 7.99902 1.00391C11.8955 1.00391 15.0605 4.16895 15.0605 8.06543C15.0605 11.9619 11.8955 15.127 7.99902 15.127ZM7.95801 5.72754C8.49805 5.72754 8.92871 5.29004 8.92871 4.75C8.92871 4.19629 8.49805 3.76562 7.95801 3.76562C7.41797 3.76562 6.98047 4.19629 6.98047 4.75C6.98047 5.29004 7.41797 5.72754 7.95801 5.72754ZM6.74121 12.0029H9.62598C9.94727 12.0029 10.2002 11.7705 10.2002 11.4424C10.2002 11.1416 9.94727 10.8955 9.62598 10.8955H8.83984V7.53906C8.83984 7.1084 8.62109 6.82812 8.21777 6.82812H6.87109C6.5498 6.82812 6.30371 7.07422 6.30371 7.375C6.30371 7.70312 6.5498 7.93555 6.87109 7.93555H7.58887V10.8955H6.74121C6.41992 10.8955 6.17383 11.1416 6.17383 11.4424C6.17383 11.7705 6.41992 12.0029 6.74121 12.0029Z" fill="#828282" style="fill:#828282;fill:color(display-p3 0.5083 0.5083 0.5083);fill-opacity:1;"/>
</svg>