<svg xmlns="http://www.w3.org/2000/svg" width="17" height="16" viewBox="0 0 17 16" fill="none">
  <path d="M4.8623 14.7773C3.7959 14.7773 3.24902 14.2168 3.24902 13.0615V8.11914C3.24902 7.09375 3.68652 6.54004 4.54102 6.43066V4.83105C4.54102 2.34277 6.19531 1.00293 8.12305 1.00293C10.0439 1.00293 11.7051 2.34277 11.7051 4.83105V6.43066C12.5527 6.54004 12.9902 7.10059 12.9902 8.11914V13.0615C12.9902 14.2168 12.4434 14.7773 11.377 14.7773H4.8623ZM5.96973 4.72852V6.41699H10.2832V4.72852C10.2832 3.21777 9.29883 2.37012 8.12305 2.37012C6.94043 2.37012 5.96973 3.21777 5.96973 4.72852Z" fill="black" style="fill:black;fill-opacity:1;"/>
</svg>