<svg xmlns="http://www.w3.org/2000/svg" width="18" height="18" viewBox="0 0 18 18" fill="none">
  <path d="M9.00092 16.9173C4.9162 16.9173 1.55273 13.5538 1.55273 9.46912C1.55273 5.68433 4.45203 2.51367 8.1297 2.07092V1.33539C8.1297 0.842651 8.5296 0.457031 9.00092 0.457031C9.47937 0.457031 9.86499 0.842651 9.86499 1.33539V2.07092C11.3789 2.25659 12.7571 2.89215 13.864 3.84906L14.3925 3.3349C14.5924 3.14923 14.7852 3.06354 15.0637 3.06354C15.535 3.06354 15.8992 3.43488 15.8992 3.89905C15.8992 4.12756 15.7993 4.34894 15.5993 4.54175L15.028 5.12018C15.9207 6.34845 16.4491 7.85522 16.4491 9.46912C16.4491 13.5538 13.0856 16.9173 9.00092 16.9173ZM9.00092 15.282C12.2216 15.282 14.8209 12.6898 14.8138 9.46912C14.8066 6.24847 12.2216 3.65625 8.99377 3.65625C5.77313 3.65625 3.19519 6.24847 3.19519 9.46912C3.19519 12.6898 5.78027 15.282 9.00092 15.282ZM9.00092 10.7617C8.2868 10.7617 7.71552 10.1832 7.71552 9.47626C7.71552 8.9978 7.97974 8.58362 8.37964 8.34796V5.22729C8.37964 4.87738 8.651 4.60602 8.99377 4.60602C9.34369 4.60602 9.61505 4.87738 9.61505 5.22729V8.3551C10.0221 8.57648 10.2863 8.9978 10.2863 9.47626C10.2863 10.1832 9.71503 10.7617 9.00092 10.7617Z" fill="#0F1FEA"/>
</svg>