<svg xmlns="http://www.w3.org/2000/svg" width="16" height="16" viewBox="0 0 16 16" fill="none">
  <path d="M2 13.8854V5.377C2 3.99844 2.71571 3.26862 4.07309 3.26862H5.09729V2.11462C5.09729 0.729825 5.81917 0 7.17038 0H12.9269C14.2781 0 15 0.736062 15 2.11462V10.623C15 12.0016 14.2781 12.7314 12.9269 12.7314H11.9027V13.8854C11.9027 15.2639 11.1808 16 9.82962 16H4.07309C2.71571 16 2 15.2702 2 13.8854ZM8.18842 1.89006C8.18842 2.10214 8.34884 2.30175 8.62031 2.30175H11.477C11.7485 2.30175 11.9089 2.10214 11.9089 1.89006V1.74035C11.9089 1.55322 11.7731 1.32866 11.477 1.32866H8.62031C8.33033 1.32866 8.18842 1.55322 8.18842 1.74035V1.89006ZM3.37589 13.7669C3.37589 14.3158 3.64737 14.609 4.20883 14.609H9.68771C10.2553 14.609 10.5268 14.3158 10.5268 13.7669V5.49552C10.5268 4.95283 10.2553 4.65341 9.68771 4.65341H4.20883C3.64737 4.65341 3.37589 4.95283 3.37589 5.49552V13.7669ZM9.46559 9.63119C9.46559 9.76842 9.41623 9.90565 9.28666 10.0491L7.701 11.7084C7.61462 11.8019 7.50973 11.8581 7.36782 11.8581C7.10252 11.8581 6.91125 11.6335 6.91125 11.384C6.91125 11.2468 6.97295 11.1158 7.07167 11.0222L7.78738 10.3485L8.07736 10.1302L7.40484 10.1739H4.81965C4.542 10.1739 4.29521 9.92437 4.29521 9.63119C4.29521 9.33801 4.542 9.09474 4.81965 9.09474H7.40484L8.07736 9.13216L7.78738 8.92008L7.07167 8.24016C6.97295 8.14659 6.91125 8.00936 6.91125 7.87836C6.91125 7.62885 7.10252 7.40429 7.36782 7.40429C7.50973 7.40429 7.61462 7.46043 7.701 7.56023L9.28666 9.21949C9.41623 9.35672 9.46559 9.49396 9.46559 9.63119Z" fill="#171717" style="fill:#171717;fill:color(display-p3 0.0902 0.0902 0.0902);fill-opacity:1;"/>
</svg>