<svg xmlns="http://www.w3.org/2000/svg" width="16" height="16" viewBox="0 0 16 16" fill="none">
  <path d="M4.11035 2.67871C4.11035 2.55111 4.13998 2.43717 4.19922 2.33691C4.25391 2.2321 4.33366 2.15006 4.43848 2.09082C4.5433 2.03157 4.65723 2.00195 4.78027 2.00195C4.87142 2.00195 4.95801 2.0179 5.04004 2.0498C5.11751 2.08171 5.19271 2.13184 5.26563 2.20019L10.3721 7.16309C10.5225 7.30892 10.5977 7.47754 10.5977 7.66895C10.5977 7.76921 10.5794 7.86035 10.543 7.94238C10.5065 8.02897 10.4518 8.10645 10.3789 8.1748L5.25879 13.1377C5.18587 13.2015 5.11068 13.2493 5.0332 13.2812C4.95573 13.3177 4.87142 13.3359 4.78027 13.3359C4.65267 13.3359 4.53874 13.3063 4.43848 13.2471C4.33366 13.1878 4.25163 13.1058 4.19238 13.001C4.13314 12.9007 4.10352 12.7868 4.10352 12.6592C4.10352 12.5635 4.12174 12.4746 4.1582 12.3926C4.19466 12.3105 4.24479 12.2376 4.30859 12.1738L9.36035 7.27246L9.36035 8.06543L4.30859 3.16406C4.24479 3.0957 4.19694 3.02279 4.16504 2.94531C4.12858 2.86328 4.11035 2.77441 4.11035 2.67871ZM10.5771 2.64453C10.5771 2.45768 10.641 2.30501 10.7686 2.18652C10.8916 2.06348 11.0488 2.00195 11.2402 2.00195C11.4271 2.00195 11.5843 2.06348 11.7119 2.18652C11.835 2.30501 11.8965 2.45768 11.8965 2.64453L11.8965 12.6797C11.8965 12.8711 11.835 13.0283 11.7119 13.1514C11.5843 13.2744 11.4271 13.3359 11.2402 13.3359C11.0488 13.3359 10.8916 13.2744 10.7686 13.1514C10.641 13.0283 10.5771 12.8711 10.5771 12.6797L10.5771 2.64453Z" fill="#A3A3A3" style="fill:#A3A3A3;fill:color(display-p3 0.6392 0.6392 0.6392);fill-opacity:1;"/>
</svg>