<svg xmlns="http://www.w3.org/2000/svg" width="16" height="16" viewBox="0 0 16 16" fill="none">
  <path d="M11.8896 13.3213C11.8896 13.4489 11.86 13.5628 11.8008 13.6631C11.7461 13.7679 11.6663 13.8499 11.5615 13.9092C11.4567 13.9684 11.3428 13.998 11.2197 13.998C11.1286 13.998 11.042 13.9821 10.96 13.9502C10.8825 13.9183 10.8073 13.8682 10.7344 13.7998L5.62793 8.83691C5.47754 8.69108 5.40234 8.52246 5.40234 8.33105C5.40234 8.23079 5.42057 8.13965 5.45703 8.05762C5.49349 7.97103 5.54818 7.89355 5.62109 7.8252L10.7412 2.8623C10.8141 2.7985 10.8893 2.75065 10.9668 2.71875C11.0443 2.68229 11.1286 2.66406 11.2197 2.66406C11.3473 2.66406 11.4613 2.69368 11.5615 2.75293C11.6663 2.81217 11.7484 2.89421 11.8076 2.99902C11.8669 3.09928 11.8965 3.21322 11.8965 3.34082C11.8965 3.43652 11.8783 3.52539 11.8418 3.60742C11.8053 3.68945 11.7552 3.76237 11.6914 3.82617L6.63965 8.72754V7.93457L11.6914 12.8359C11.7552 12.9043 11.8031 12.9772 11.835 13.0547C11.8714 13.1367 11.8896 13.2256 11.8896 13.3213ZM5.42285 13.3555C5.42285 13.5423 5.35905 13.695 5.23145 13.8135C5.1084 13.9365 4.95117 13.998 4.75977 13.998C4.57292 13.998 4.41569 13.9365 4.28809 13.8135C4.16504 13.695 4.10352 13.5423 4.10352 13.3555V3.32031C4.10352 3.12891 4.16504 2.97168 4.28809 2.84863C4.41569 2.72559 4.57292 2.66406 4.75977 2.66406C4.95117 2.66406 5.1084 2.72559 5.23145 2.84863C5.35905 2.97168 5.42285 3.12891 5.42285 3.32031V13.3555Z" fill="#A3A3A3" style="fill:#A3A3A3;fill:color(display-p3 0.6392 0.6392 0.6392);fill-opacity:1;"/>
</svg>