<svg xmlns="http://www.w3.org/2000/svg" width="16" height="16" viewBox="0 0 16 16" fill="none">
  <path d="M0.636719 13.2666V7.86475C0.636719 6.97607 1.18896 6.44922 2.12842 6.44922H3.5376V3.61182C3.5376 2.25342 4.24219 1.54883 5.61328 1.54883H13.2812C14.6587 1.54883 15.3633 2.25342 15.3633 3.61182V13.2285C15.3633 14.5869 14.6587 15.2915 13.2812 15.2915H2.7124C1.354 15.2915 0.636719 14.5742 0.636719 13.2666ZM4.59131 14.0474H13.2051C13.8018 14.0474 14.1191 13.7363 14.1191 13.1206V3.71973C14.1191 3.104 13.8018 2.79297 13.2051 2.79297H5.68945C5.09912 2.79297 4.77539 3.104 4.77539 3.71973V13.2095C4.77539 13.5332 4.71191 13.8062 4.59131 14.0474ZM6.3877 5.50342C6.14014 5.50342 5.95605 5.31299 5.95605 5.07178C5.95605 4.83691 6.14014 4.65283 6.3877 4.65283H12.5195C12.7607 4.65283 12.9448 4.83691 12.9448 5.07178C12.9448 5.31299 12.7607 5.50342 12.5195 5.50342H6.3877ZM6.3877 7.69336C6.14014 7.69336 5.95605 7.50928 5.95605 7.27441C5.95605 7.03955 6.14014 6.84912 6.3877 6.84912H12.5195C12.7607 6.84912 12.9448 7.03955 12.9448 7.27441C12.9448 7.50928 12.7607 7.69336 12.5195 7.69336H6.3877ZM1.88086 13.2095C1.88086 13.6855 2.24268 14.0474 2.7124 14.0474C3.17578 14.0474 3.5376 13.6982 3.5376 13.2095V7.69336H2.28076C2.0332 7.69336 1.88086 7.8457 1.88086 8.09326V13.2095ZM6.74951 12.1113C6.24805 12.1113 5.94971 11.813 5.94971 11.3179V9.84521C5.94971 9.3501 6.24805 9.05176 6.74951 9.05176H8.33008C8.8252 9.05176 9.12354 9.3501 9.12354 9.84521V11.3179C9.12354 11.813 8.8252 12.1113 8.33008 12.1113H6.74951ZM10.2534 9.896C10.0059 9.896 9.82178 9.71191 9.82178 9.47705C9.82178 9.23584 10.0059 9.05176 10.2534 9.05176H12.5132C12.7544 9.05176 12.9385 9.23584 12.9385 9.47705C12.9385 9.71191 12.7544 9.896 12.5132 9.896H10.2534ZM10.2534 12.1113C10.0059 12.1113 9.82178 11.9272 9.82178 11.6924C9.82178 11.4575 10.0059 11.2671 10.2534 11.2671H12.5132C12.7544 11.2671 12.9385 11.4575 12.9385 11.6924C12.9385 11.9272 12.7544 12.1113 12.5132 12.1113H10.2534Z" fill="#0F1FEA" style="fill:#0F1FEA;fill:color(display-p3 0.0588 0.1216 0.9176);fill-opacity:1;"/>
</svg>