<svg xmlns="http://www.w3.org/2000/svg" width="186" height="33" viewBox="0 0 186 33" fill="none">
  <path d="M140.156 21.5768C140.156 23.7448 139.645 25.6477 138.606 27.2873C137.575 28.927 136.102 30.2043 134.187 31.1213C132.28 32.0383 130.055 32.4958 127.515 32.4958C125.298 32.4958 123.252 32.1173 121.389 31.3501C119.526 30.5748 117.939 29.4918 116.642 28.0728L119.579 25.1376L121.701 23.0222C122.143 23.674 122.776 24.2286 123.582 24.678C123.737 24.7671 123.903 24.8541 124.076 24.9331C125.125 25.4351 126.225 25.6821 127.378 25.6821C128.357 25.6821 129.223 25.506 129.977 25.1618C130.732 24.8177 131.321 24.3157 131.753 23.672C132.177 23.0282 132.394 22.2529 132.394 21.3461C132.394 20.4392 132.169 19.672 131.727 19.0202C131.285 18.3764 130.652 17.8926 129.846 17.5566C129.032 17.2226 128.061 17.0627 126.934 17.0627C126.345 17.0627 125.73 17.0971 125.097 17.1679C124.464 17.2469 123.962 17.3623 123.58 17.502C123.58 17.502 123.574 17.5047 123.562 17.51V13.087L123.58 13.0688L128.908 7.2186H123.58V0.5H139.495V4.87852L132.65 12.2793C133.881 12.4028 135.007 12.7631 136.03 13.3805C137.304 14.1477 138.309 15.2307 139.046 16.6315C139.79 18.0323 140.154 19.6801 140.154 21.5748L140.156 21.5768Z" fill="#FF6700"/>
  <path d="M162.546 15.8218C161.585 14.2125 160.297 12.9331 158.684 11.9858C157.072 11.0384 155.275 10.5647 153.292 10.5647C153.253 10.5647 153.219 10.5688 153.181 10.5688L160.703 0.5H151.828L142.819 13.4068C141.043 16.0546 140.156 18.6862 140.156 21.3036C140.156 23.4108 140.681 25.3137 141.732 27.012C142.781 28.7124 144.202 30.0505 145.992 31.0282C147.781 32.0059 149.799 32.4958 152.048 32.4958C154.298 32.4958 156.36 31.9999 158.149 31.0059C159.938 30.014 161.358 28.676 162.409 26.9898C163.457 25.3056 163.983 23.3946 163.983 21.259C163.983 19.2449 163.501 17.4311 162.542 15.8218H162.546ZM155.846 23.4493C155.476 24.1558 154.966 24.7064 154.316 25.0971C153.665 25.4878 152.91 25.6841 152.052 25.6841C151.195 25.6841 150.484 25.4878 149.833 25.0971C149.182 24.7064 148.673 24.1578 148.303 23.4493C147.932 22.7428 147.747 21.9534 147.747 21.0809C147.747 20.2084 147.932 19.427 148.303 18.7347C148.673 18.0424 149.182 17.4939 149.833 17.087C150.484 16.6801 151.222 16.4777 152.052 16.4777C152.882 16.4777 153.665 16.674 154.316 17.0647C154.966 17.4554 155.476 18.006 155.846 18.7125C156.216 19.421 156.401 20.2104 156.401 21.0829C156.401 21.9554 156.216 22.7448 155.846 23.4513V23.4493Z" fill="#FF6700"/>
  <path d="M184.069 16.1378C183.241 14.5285 182.021 13.235 180.408 12.2573C178.796 11.2796 176.792 10.7917 174.395 10.7917C173.448 10.7917 172.628 10.8666 171.933 11.0164C171.744 11.0569 171.559 11.1055 171.376 11.1601L171.87 7.22491H183.581V0.500244H165.52L163.968 15.2127L167.075 18.1014C167.755 17.5892 168.516 17.1905 169.36 16.905C170.204 16.6196 171.127 16.4759 172.132 16.4759C173.255 16.4759 174.218 16.6722 175.016 17.0629C175.815 17.4536 176.43 17.9961 176.857 18.6884C177.285 19.3807 177.5 20.1925 177.5 21.1257C177.5 22.0589 177.285 22.8645 176.857 23.5406C176.428 24.2167 175.836 24.7431 175.082 25.1196C174.328 25.4961 173.432 25.6844 172.397 25.6844C171.243 25.6844 170.14 25.4354 169.091 24.9394C168.04 24.4435 167.25 23.8038 166.716 23.0204L161.657 28.075C162.929 29.49 164.547 30.5791 166.515 31.3463C168.482 32.1135 170.546 32.4961 172.706 32.4961C175.279 32.4961 177.504 32.0285 179.383 31.0973C181.262 30.1641 182.719 28.8625 183.754 27.1924C184.789 25.5224 185.307 23.6054 185.307 21.4374C185.307 19.5123 184.893 17.7451 184.065 16.1358L184.069 16.1378Z" fill="#FF6700"/>
  <path d="M84.9135 17.0852C84.2627 16.4273 83.4904 15.8828 82.6047 15.4374C83.2117 15.0913 83.7591 14.6965 84.2248 14.2411C85.6579 12.8443 86.3805 11.0731 86.3805 8.93746C86.3805 7.34637 85.9923 5.9152 85.226 4.65205C84.4537 3.3889 83.355 2.3808 81.9199 1.62979C80.4869 0.876761 78.789 0.500244 76.8364 0.500244H62.5513V32.5001H76.5299C78.7194 32.5001 80.6182 32.0932 82.2324 31.2815C83.8407 30.4698 85.0887 29.3605 85.9824 27.9637C86.8681 26.5609 87.312 24.9637 87.312 23.154C87.312 20.7208 86.5138 18.6965 84.9155 17.0872L84.9135 17.0852ZM70.3616 6.50427H74.9316C75.9666 6.50427 76.8145 6.7654 77.4813 7.28969C78.1481 7.81803 78.4765 8.63584 78.4765 9.74919C78.4765 10.8625 78.1481 11.6864 77.4813 12.2087C76.8145 12.737 75.9646 12.9982 74.9316 12.9982H70.3616V6.50427ZM78.3691 25.4354C77.6465 26.1418 76.6613 26.492 75.4193 26.492H70.3616V18.822H75.4193C76.2453 18.822 76.9618 18.9779 77.5709 19.2957C78.178 19.6135 78.6437 20.0629 78.9722 20.6479C79.2946 21.237 79.4598 21.905 79.4598 22.658C79.4598 23.8038 79.0995 24.7289 78.371 25.4354H78.3691Z" fill="#0F1FEA"/>
  <path d="M88.6851 32.4936V9.88434H96.4516V32.4936H88.6851Z" fill="#0F1FEA"/>
  <path d="M98.8013 32.4958V0.5H106.522V32.4958H98.8013Z" fill="#0F1FEA"/>
  <path d="M108.92 32.4961V0.500244H116.641V32.4961H108.92Z" fill="#0F1FEA"/>
  <path d="M92.5679 8.399C94.7125 8.399 96.4512 6.6308 96.4512 4.44962C96.4512 2.26844 94.7125 0.500244 92.5679 0.500244C90.4232 0.500244 88.6846 2.26844 88.6846 4.44962C88.6846 6.6308 90.4232 8.399 92.5679 8.399Z" fill="#FF6700"/>
  <path d="M36.6795 0.5L31.1879 19.3238L25.7641 0.5H19.4186L14.0167 19.2489L8.54703 0.5H0.692871L10.6768 32.4958H17.1098L22.5735 13.4534L28.071 32.4958H34.4622L44.4899 0.5H36.6795Z" fill="#0F1FEA"/>
  <path d="M56.5112 21.739C56.4674 22.1702 56.3718 22.5852 56.2245 22.9901C55.9817 23.6783 55.5916 24.3038 55.0542 24.8483C53.6768 26.2411 51.7183 26.6722 49.9766 26.1358L54.3098 21.739L60.8343 15.1217C60.4104 14.4334 59.9068 13.7917 59.3276 13.1925C58.7384 12.5933 58.1055 12.0832 57.4307 11.65C56.8336 11.2614 56.2007 10.9355 55.5498 10.6804C51.565 9.06704 46.8338 9.89699 43.6014 13.1824C41.6428 15.1743 40.56 17.7289 40.3789 20.3382C40.3092 21.2107 40.3451 22.1014 40.4824 22.9739C40.7173 24.4637 41.2447 25.9253 42.0687 27.239C42.5027 27.9273 43.0042 28.569 43.5854 29.1682C44.1746 29.7593 44.8075 30.2775 45.4743 30.7107C49.7716 33.5042 55.5518 33.0022 59.3117 29.1864C61.0274 27.4415 62.0664 25.2654 62.4306 23.0002C62.5003 22.5771 62.5341 22.1621 62.5521 21.7411H56.5131L56.5112 21.739ZM46.4258 20.3463C46.591 19.3059 47.0667 18.3099 47.8549 17.5083C49.2243 16.1156 51.1908 15.6844 52.9244 16.2209L46.573 22.6621C46.3561 21.9131 46.3043 21.1115 46.4258 20.3443V20.3463Z" fill="#0F1FEA"/>
</svg>