<svg xmlns="http://www.w3.org/2000/svg" width="16" height="16" viewBox="0 0 16 16" fill="none">
  <path d="M1.25391 6.82031C1.25391 3.75098 3.74902 1.25586 6.81836 1.25586C9.8877 1.25586 12.3828 3.75098 12.3828 6.82031C12.3828 8.0166 11.9932 9.12402 11.3438 10.0195L14.4678 13.1504C14.6523 13.3418 14.748 13.5947 14.748 13.8682C14.748 14.4355 14.3311 14.873 13.75 14.873C13.4834 14.873 13.2168 14.7842 13.0254 14.5859L9.88086 11.4414C9.00586 12.0361 7.95996 12.3848 6.81836 12.3848C3.74902 12.3848 1.25391 9.88965 1.25391 6.82031ZM2.67578 6.82031C2.67578 9.11035 4.52832 10.9629 6.81836 10.9629C9.1084 10.9629 10.9609 9.11035 10.9609 6.82031C10.9609 4.53027 9.1084 2.67773 6.81836 2.67773C4.52832 2.67773 2.67578 4.53027 2.67578 6.82031Z" fill="#737373" style="fill:#737373;fill:color(display-p3 0.4510 0.4510 0.4510);fill-opacity:1;"/>
</svg>