<svg xmlns="http://www.w3.org/2000/svg" width="16" height="16" viewBox="0 0 16 16" fill="none">
  <path d="M7.42236 15.2407C7.00977 15.2407 6.69873 14.9932 6.60986 14.5933L6.29248 13.2793C6.0957 13.2158 5.91162 13.1396 5.74023 13.0571L4.59131 13.7617C4.24854 13.9775 3.84863 13.9395 3.56299 13.6538L2.75049 12.8477C2.46484 12.562 2.43311 12.1431 2.65527 11.8003L3.35352 10.6641C3.271 10.4927 3.19482 10.3086 3.1377 10.1309L1.81104 9.81348C1.41113 9.71826 1.16992 9.41357 1.16992 9.00098V7.86475C1.16992 7.4585 1.41113 7.15381 1.81104 7.05859L3.125 6.74121C3.18848 6.53809 3.271 6.354 3.34082 6.20166L2.63623 5.04004C2.42676 4.68457 2.45215 4.29736 2.74414 4.00537L3.56299 3.19922C3.84863 2.91992 4.22314 2.87549 4.56592 3.07227L5.73389 3.78955C5.90527 3.70703 6.0957 3.63086 6.29248 3.56104L6.60986 2.24072C6.70508 1.84082 7.00977 1.59326 7.42236 1.59326H8.57764C8.99023 1.59326 9.28857 1.84082 9.39014 2.24072L9.70117 3.57373C9.9043 3.64355 10.0884 3.71338 10.2534 3.7959L11.4341 3.07227C11.7705 2.87549 12.1387 2.93262 12.4243 3.19287L13.2495 4.00537C13.5415 4.29736 13.5669 4.68457 13.3574 5.04004L12.6528 6.20166C12.7227 6.354 12.8052 6.53809 12.8687 6.74121L14.1826 7.05859C14.5825 7.15381 14.8237 7.4585 14.8237 7.86475V9.00098C14.8237 9.41357 14.5825 9.71826 14.1826 9.81348L12.856 10.1309C12.7988 10.3086 12.7227 10.4927 12.6465 10.6641L13.3447 11.8003C13.5605 12.1431 13.5288 12.562 13.2432 12.8477L12.4307 13.6538C12.145 13.9395 11.7451 13.9775 11.4023 13.7617L10.2534 13.0571C10.0884 13.1396 9.89795 13.2158 9.70117 13.2793L9.39014 14.5933C9.29492 14.9932 8.99023 15.2407 8.57764 15.2407H7.42236ZM8 10.6196C9.2124 10.6196 10.2026 9.63574 10.2026 8.41699C10.2026 7.19824 9.2124 6.20801 8 6.20801C6.78125 6.20801 5.79102 7.19824 5.79102 8.41699C5.79102 9.63574 6.78125 10.6196 8 10.6196Z" fill="#737373" />
</svg>