<svg xmlns="http://www.w3.org/2000/svg" width="18" height="18" viewBox="0 0 18 18" fill="none">
  <path d="M4.90173 17.4017C3.25598 17.4017 2.40234 16.5327 2.40234 14.8793V3.27441C2.40234 1.61328 3.25598 0.751953 4.90173 0.751953H7.19348C7.47803 0.751953 7.65491 0.928833 7.65491 1.21338C7.65491 1.97473 8.18555 2.54382 8.99304 2.54382C9.80823 2.54382 10.3312 1.97473 10.3312 1.21338C10.3312 0.928833 10.5081 0.751953 10.7926 0.751953H13.092C14.7378 0.751953 15.5914 1.61328 15.5914 3.27441V14.8793C15.5914 16.5327 14.7378 17.4017 13.092 17.4017H4.90173ZM5.02478 15.8944H12.9613C13.7073 15.8944 14.0841 15.4945 14.0841 14.787V3.3667C14.0841 2.65149 13.7073 2.25928 12.9613 2.25928H11.4924C11.1617 3.32825 10.2312 3.98193 8.99304 3.98193C7.76257 3.98193 6.83203 3.32825 6.50134 2.25928H5.02478C4.27881 2.25928 3.90967 2.65149 3.90967 3.3667V14.787C3.90967 15.4945 4.27881 15.8944 5.02478 15.8944ZM6.18604 6.65051C5.8938 6.65051 5.68616 6.43518 5.68616 6.15063C5.68616 5.88147 5.8938 5.67383 6.18604 5.67383H11.8154C12.0923 5.67383 12.2999 5.88147 12.2999 6.15063C12.2999 6.43518 12.0923 6.65051 11.8154 6.65051H6.18604ZM6.18604 9.31909C5.8938 9.31909 5.68616 9.10376 5.68616 8.83459C5.68616 8.55774 5.8938 8.34241 6.18604 8.34241H8.90845C9.1853 8.34241 9.39294 8.55774 9.39294 8.83459C9.39294 9.10376 9.1853 9.31909 8.90845 9.31909H6.18604Z" fill="#171717" style="fill:#171717;fill:color(display-p3 0.0902 0.0902 0.0902);fill-opacity:1;"/>
</svg>