<svg xmlns="http://www.w3.org/2000/svg" width="16" height="16" viewBox="0 0 16 16" fill="none">
  <path d="M6.83746 13.4377C6.52148 13.4377 6.2845 13.3192 6.0701 13.054L3.14735 9.45421C2.98372 9.25673 2.91602 9.07053 2.91602 8.87305C2.91602 8.42166 3.24891 8.0944 3.71159 8.0944C3.98806 8.0944 4.1799 8.19596 4.3661 8.4273L6.81489 11.5306L11.594 3.95855C11.7858 3.65386 11.9776 3.54102 12.2936 3.54102C12.7507 3.54102 13.0779 3.86263 13.0779 4.30838C13.0779 4.48329 13.0271 4.66385 12.8917 4.86697L7.61046 13.0371C7.4299 13.3079 7.17036 13.4377 6.83746 13.4377Z" fill="#0F1FEA" style="fill:#0F1FEA;fill:color(display-p3 0.0588 0.1216 0.9176);fill-opacity:1;"/>
</svg>